<mxfile host="app.diagrams.net" modified="2021-03-21T18:27:53.535Z" agent="5.0 (Windows NT 10.0; Win64; x64) AppleWebKit/537.36 (KHTML, like Gecko) Chrome/87.0.4280.141 Safari/537.36 OPR/73.0.3856.415" etag="gdEyz4tR1Iy7s7nQ4u0W" version="14.4.9" type="github">
  <diagram id="U_U9E7AYqNK65dQkvwTN" name="Page-1">
    <mxGraphModel dx="634" dy="529" grid="1" gridSize="10" guides="1" tooltips="1" connect="1" arrows="1" fold="1" page="1" pageScale="1" pageWidth="827" pageHeight="1169" math="0" shadow="0">
      <root>
        <mxCell id="0" />
        <mxCell id="1" parent="0" />
        <mxCell id="p_uPbiMRUkFWoQdxBxhf-1" value="Клиент" style="shape=umlActor;verticalLabelPosition=bottom;verticalAlign=top;html=1;outlineConnect=0;fontSize=21;fontStyle=1" parent="1" vertex="1">
          <mxGeometry x="80" y="160" width="60" height="120" as="geometry" />
        </mxCell>
        <mxCell id="p_uPbiMRUkFWoQdxBxhf-2" value="&lt;b&gt;Отметка о&lt;br&gt;выезде&lt;br&gt;клиента&lt;/b&gt;" style="ellipse;whiteSpace=wrap;html=1;fontSize=21;" parent="1" vertex="1">
          <mxGeometry x="320" y="30" width="140" height="100" as="geometry" />
        </mxCell>
        <mxCell id="p_uPbiMRUkFWoQdxBxhf-3" value="&lt;span style=&quot;font-size: 21px&quot;&gt;&lt;b&gt;Выдача&amp;nbsp;&lt;br&gt;счета на&lt;br&gt;оплату&lt;br&gt;&lt;/b&gt;&lt;/span&gt;" style="ellipse;whiteSpace=wrap;html=1;" parent="1" vertex="1">
          <mxGeometry x="320" y="160" width="140" height="100" as="geometry" />
        </mxCell>
        <mxCell id="p_uPbiMRUkFWoQdxBxhf-5" value="&lt;b&gt;Бронирование&lt;/b&gt;&lt;br&gt;&lt;b&gt;номера&lt;/b&gt;" style="ellipse;whiteSpace=wrap;html=1;fontSize=21;" parent="1" vertex="1">
          <mxGeometry x="319" y="280" width="190" height="110" as="geometry" />
        </mxCell>
        <mxCell id="p_uPbiMRUkFWoQdxBxhf-6" value="&lt;b&gt;Подбор&lt;/b&gt;&lt;br&gt;&lt;b&gt;номера&lt;/b&gt;" style="ellipse;whiteSpace=wrap;html=1;fontSize=21;" parent="1" vertex="1">
          <mxGeometry x="320" y="470" width="120" height="80" as="geometry" />
        </mxCell>
        <mxCell id="p_uPbiMRUkFWoQdxBxhf-7" value="&lt;b&gt;Отказ&lt;/b&gt;" style="ellipse;whiteSpace=wrap;html=1;fontSize=21;" parent="1" vertex="1">
          <mxGeometry x="350" y="600" width="80" height="60" as="geometry" />
        </mxCell>
        <mxCell id="p_uPbiMRUkFWoQdxBxhf-8" value="&lt;b&gt;Заключение&amp;nbsp;&lt;br&gt;договора&lt;/b&gt;" style="ellipse;whiteSpace=wrap;html=1;fontSize=21;" parent="1" vertex="1">
          <mxGeometry x="310" y="680" width="140" height="100" as="geometry" />
        </mxCell>
        <mxCell id="p_uPbiMRUkFWoQdxBxhf-9" value="" style="endArrow=none;html=1;fontSize=21;entryX=0;entryY=0.5;entryDx=0;entryDy=0;" parent="1" target="p_uPbiMRUkFWoQdxBxhf-2" edge="1">
          <mxGeometry width="50" height="50" relative="1" as="geometry">
            <mxPoint x="150" y="190" as="sourcePoint" />
            <mxPoint x="400" y="390" as="targetPoint" />
          </mxGeometry>
        </mxCell>
        <mxCell id="p_uPbiMRUkFWoQdxBxhf-10" value="" style="endArrow=none;html=1;fontSize=21;entryX=0;entryY=0.5;entryDx=0;entryDy=0;" parent="1" target="p_uPbiMRUkFWoQdxBxhf-3" edge="1">
          <mxGeometry width="50" height="50" relative="1" as="geometry">
            <mxPoint x="150" y="210" as="sourcePoint" />
            <mxPoint x="400" y="390" as="targetPoint" />
          </mxGeometry>
        </mxCell>
        <mxCell id="p_uPbiMRUkFWoQdxBxhf-11" value="" style="endArrow=none;html=1;fontSize=21;entryX=0;entryY=0.5;entryDx=0;entryDy=0;" parent="1" target="p_uPbiMRUkFWoQdxBxhf-5" edge="1">
          <mxGeometry width="50" height="50" relative="1" as="geometry">
            <mxPoint x="150" y="220" as="sourcePoint" />
            <mxPoint x="400" y="390" as="targetPoint" />
          </mxGeometry>
        </mxCell>
        <mxCell id="p_uPbiMRUkFWoQdxBxhf-12" value="" style="endArrow=none;html=1;fontSize=21;entryX=0;entryY=0.5;entryDx=0;entryDy=0;" parent="1" target="p_uPbiMRUkFWoQdxBxhf-6" edge="1">
          <mxGeometry width="50" height="50" relative="1" as="geometry">
            <mxPoint x="150" y="230" as="sourcePoint" />
            <mxPoint x="400" y="390" as="targetPoint" />
          </mxGeometry>
        </mxCell>
        <mxCell id="p_uPbiMRUkFWoQdxBxhf-13" value="" style="endArrow=none;html=1;fontSize=21;entryX=0;entryY=0.5;entryDx=0;entryDy=0;" parent="1" target="p_uPbiMRUkFWoQdxBxhf-8" edge="1">
          <mxGeometry width="50" height="50" relative="1" as="geometry">
            <mxPoint x="150" y="250" as="sourcePoint" />
            <mxPoint x="400" y="390" as="targetPoint" />
          </mxGeometry>
        </mxCell>
        <mxCell id="p_uPbiMRUkFWoQdxBxhf-16" value="include" style="html=1;verticalAlign=bottom;endArrow=open;dashed=1;endSize=8;fontSize=21;entryX=0.5;entryY=0;entryDx=0;entryDy=0;exitX=0.5;exitY=1;exitDx=0;exitDy=0;" parent="1" source="p_uPbiMRUkFWoQdxBxhf-5" target="p_uPbiMRUkFWoQdxBxhf-6" edge="1">
          <mxGeometry x="-0.3529" y="46" relative="1" as="geometry">
            <mxPoint x="410" y="420" as="sourcePoint" />
            <mxPoint x="330" y="420" as="targetPoint" />
            <mxPoint as="offset" />
          </mxGeometry>
        </mxCell>
        <mxCell id="p_uPbiMRUkFWoQdxBxhf-17" value="include" style="html=1;verticalAlign=bottom;endArrow=open;dashed=1;endSize=8;fontSize=21;entryX=0.5;entryY=0;entryDx=0;entryDy=0;exitX=0.5;exitY=1;exitDx=0;exitDy=0;" parent="1" source="p_uPbiMRUkFWoQdxBxhf-6" target="p_uPbiMRUkFWoQdxBxhf-7" edge="1">
          <mxGeometry x="0.6154" y="53" relative="1" as="geometry">
            <mxPoint x="410" y="420" as="sourcePoint" />
            <mxPoint x="330" y="420" as="targetPoint" />
            <mxPoint as="offset" />
          </mxGeometry>
        </mxCell>
        <mxCell id="p_uPbiMRUkFWoQdxBxhf-18" value="&lt;b&gt;Администратор&lt;/b&gt;" style="shape=umlActor;verticalLabelPosition=bottom;verticalAlign=top;html=1;fontSize=21;" parent="1" vertex="1">
          <mxGeometry x="750" y="150" width="60" height="120" as="geometry" />
        </mxCell>
        <mxCell id="p_uPbiMRUkFWoQdxBxhf-19" value="&lt;b&gt;Регистрация&lt;/b&gt;&lt;br&gt;&lt;b&gt;клиента&lt;/b&gt;" style="ellipse;whiteSpace=wrap;html=1;fontSize=21;" parent="1" vertex="1">
          <mxGeometry x="695" y="500" width="170" height="80" as="geometry" />
        </mxCell>
        <mxCell id="p_uPbiMRUkFWoQdxBxhf-20" value="include" style="html=1;verticalAlign=bottom;endArrow=open;dashed=1;endSize=8;fontSize=21;exitX=0.979;exitY=0.73;exitDx=0;exitDy=0;exitPerimeter=0;entryX=0;entryY=0;entryDx=0;entryDy=0;" parent="1" source="p_uPbiMRUkFWoQdxBxhf-5" target="p_uPbiMRUkFWoQdxBxhf-19" edge="1">
          <mxGeometry x="0.731" y="18" relative="1" as="geometry">
            <mxPoint x="520" y="390" as="sourcePoint" />
            <mxPoint x="440" y="400" as="targetPoint" />
            <mxPoint as="offset" />
          </mxGeometry>
        </mxCell>
        <mxCell id="p_uPbiMRUkFWoQdxBxhf-21" value="include" style="html=1;verticalAlign=bottom;endArrow=open;dashed=1;endSize=8;fontSize=21;exitX=1;exitY=0.5;exitDx=0;exitDy=0;entryX=0;entryY=1;entryDx=0;entryDy=0;" parent="1" source="p_uPbiMRUkFWoQdxBxhf-8" target="p_uPbiMRUkFWoQdxBxhf-19" edge="1">
          <mxGeometry relative="1" as="geometry">
            <mxPoint x="520" y="400" as="sourcePoint" />
            <mxPoint x="440" y="400" as="targetPoint" />
          </mxGeometry>
        </mxCell>
        <mxCell id="p_uPbiMRUkFWoQdxBxhf-23" value="" style="endArrow=none;html=1;fontSize=21;exitX=1;exitY=0;exitDx=0;exitDy=0;" parent="1" source="p_uPbiMRUkFWoQdxBxhf-8" target="p_uPbiMRUkFWoQdxBxhf-18" edge="1">
          <mxGeometry width="50" height="50" relative="1" as="geometry">
            <mxPoint x="450" y="430" as="sourcePoint" />
            <mxPoint x="500" y="380" as="targetPoint" />
          </mxGeometry>
        </mxCell>
        <mxCell id="p_uPbiMRUkFWoQdxBxhf-24" value="" style="endArrow=none;html=1;fontSize=21;exitX=1;exitY=0.5;exitDx=0;exitDy=0;" parent="1" source="p_uPbiMRUkFWoQdxBxhf-6" target="p_uPbiMRUkFWoQdxBxhf-18" edge="1">
          <mxGeometry width="50" height="50" relative="1" as="geometry">
            <mxPoint x="450" y="430" as="sourcePoint" />
            <mxPoint x="500" y="380" as="targetPoint" />
          </mxGeometry>
        </mxCell>
        <mxCell id="p_uPbiMRUkFWoQdxBxhf-25" value="" style="endArrow=none;html=1;fontSize=21;entryX=1;entryY=0.5;entryDx=0;entryDy=0;" parent="1" source="p_uPbiMRUkFWoQdxBxhf-18" target="p_uPbiMRUkFWoQdxBxhf-5" edge="1">
          <mxGeometry width="50" height="50" relative="1" as="geometry">
            <mxPoint x="450" y="430" as="sourcePoint" />
            <mxPoint x="500" y="380" as="targetPoint" />
          </mxGeometry>
        </mxCell>
        <mxCell id="p_uPbiMRUkFWoQdxBxhf-26" value="" style="endArrow=none;html=1;fontSize=21;entryX=1;entryY=0.5;entryDx=0;entryDy=0;" parent="1" source="p_uPbiMRUkFWoQdxBxhf-18" target="p_uPbiMRUkFWoQdxBxhf-3" edge="1">
          <mxGeometry width="50" height="50" relative="1" as="geometry">
            <mxPoint x="450" y="430" as="sourcePoint" />
            <mxPoint x="500" y="380" as="targetPoint" />
          </mxGeometry>
        </mxCell>
        <mxCell id="p_uPbiMRUkFWoQdxBxhf-27" value="" style="endArrow=none;html=1;fontSize=21;entryX=1;entryY=0.5;entryDx=0;entryDy=0;" parent="1" target="p_uPbiMRUkFWoQdxBxhf-2" edge="1">
          <mxGeometry width="50" height="50" relative="1" as="geometry">
            <mxPoint x="740" y="190" as="sourcePoint" />
            <mxPoint x="500" y="380" as="targetPoint" />
          </mxGeometry>
        </mxCell>
        <mxCell id="8SAjOOc6TQHBhtVSZ3wd-5" style="edgeStyle=orthogonalEdgeStyle;rounded=0;orthogonalLoop=1;jettySize=auto;html=1;exitX=1;exitY=0.5;exitDx=0;exitDy=0;entryX=0;entryY=0.5;entryDx=0;entryDy=0;" parent="1" source="8SAjOOc6TQHBhtVSZ3wd-1" edge="1">
          <mxGeometry relative="1" as="geometry">
            <mxPoint x="354" y="1440" as="targetPoint" />
          </mxGeometry>
        </mxCell>
        <mxCell id="8SAjOOc6TQHBhtVSZ3wd-1" value="" style="ellipse;html=1;shape=startState;fillColor=#000000;strokeColor=#ff0000;" parent="1" vertex="1">
          <mxGeometry x="200" y="1417.5" width="50" height="45" as="geometry" />
        </mxCell>
        <mxCell id="8SAjOOc6TQHBhtVSZ3wd-7" style="edgeStyle=orthogonalEdgeStyle;rounded=0;orthogonalLoop=1;jettySize=auto;html=1;exitX=0.5;exitY=1;exitDx=0;exitDy=0;" parent="1" target="8SAjOOc6TQHBhtVSZ3wd-6" edge="1">
          <mxGeometry relative="1" as="geometry">
            <mxPoint x="414" y="1432.5" as="sourcePoint" />
          </mxGeometry>
        </mxCell>
        <mxCell id="8SAjOOc6TQHBhtVSZ3wd-10" style="edgeStyle=orthogonalEdgeStyle;rounded=0;orthogonalLoop=1;jettySize=auto;html=1;exitX=0;exitY=0.5;exitDx=0;exitDy=0;entryX=0.5;entryY=0;entryDx=0;entryDy=0;" parent="1" source="8SAjOOc6TQHBhtVSZ3wd-6" target="8SAjOOc6TQHBhtVSZ3wd-8" edge="1">
          <mxGeometry relative="1" as="geometry" />
        </mxCell>
        <mxCell id="8SAjOOc6TQHBhtVSZ3wd-18" style="edgeStyle=orthogonalEdgeStyle;rounded=0;orthogonalLoop=1;jettySize=auto;html=1;exitX=1;exitY=0.5;exitDx=0;exitDy=0;entryX=0.5;entryY=0;entryDx=0;entryDy=0;" parent="1" source="8SAjOOc6TQHBhtVSZ3wd-6" target="8SAjOOc6TQHBhtVSZ3wd-17" edge="1">
          <mxGeometry relative="1" as="geometry" />
        </mxCell>
        <mxCell id="8SAjOOc6TQHBhtVSZ3wd-6" value="" style="rhombus;whiteSpace=wrap;html=1;" parent="1" vertex="1">
          <mxGeometry x="374" y="1520" width="80" height="80" as="geometry" />
        </mxCell>
        <mxCell id="8SAjOOc6TQHBhtVSZ3wd-13" style="edgeStyle=orthogonalEdgeStyle;rounded=0;orthogonalLoop=1;jettySize=auto;html=1;exitX=0.5;exitY=1;exitDx=0;exitDy=0;entryX=0.5;entryY=0;entryDx=0;entryDy=0;" parent="1" source="8SAjOOc6TQHBhtVSZ3wd-8" target="8SAjOOc6TQHBhtVSZ3wd-12" edge="1">
          <mxGeometry relative="1" as="geometry" />
        </mxCell>
        <mxCell id="8SAjOOc6TQHBhtVSZ3wd-8" value="&lt;font size=&quot;1&quot;&gt;&lt;b style=&quot;font-size: 21px&quot;&gt;Отказ&lt;/b&gt;&lt;/font&gt;" style="rounded=1;whiteSpace=wrap;html=1;" parent="1" vertex="1">
          <mxGeometry x="150" y="1640" width="120" height="60" as="geometry" />
        </mxCell>
        <mxCell id="8SAjOOc6TQHBhtVSZ3wd-9" value="&lt;font style=&quot;font-size: 21px&quot;&gt;&lt;b&gt;Подбор&lt;br&gt;&amp;nbsp;&lt;/b&gt;&lt;/font&gt;&lt;font style=&quot;font-size: 21px&quot;&gt;&lt;b&gt;номера&lt;/b&gt;&lt;/font&gt;" style="rounded=1;whiteSpace=wrap;html=1;" parent="1" vertex="1">
          <mxGeometry x="354" y="1410" width="120" height="60" as="geometry" />
        </mxCell>
        <mxCell id="8SAjOOc6TQHBhtVSZ3wd-11" value="&lt;font style=&quot;font-size: 21px&quot;&gt;Нет&lt;/font&gt;" style="text;html=1;strokeColor=none;fillColor=none;align=center;verticalAlign=middle;whiteSpace=wrap;rounded=0;" parent="1" vertex="1">
          <mxGeometry x="240" y="1520" width="40" height="20" as="geometry" />
        </mxCell>
        <mxCell id="8SAjOOc6TQHBhtVSZ3wd-12" value="" style="ellipse;html=1;shape=endState;fillColor=#000000;strokeColor=#ff0000;" parent="1" vertex="1">
          <mxGeometry x="190" y="1760" width="40" height="38" as="geometry" />
        </mxCell>
        <mxCell id="8SAjOOc6TQHBhtVSZ3wd-14" value="&lt;font style=&quot;font-size: 21px&quot;&gt;Есть свободные номера?&lt;/font&gt;" style="text;html=1;strokeColor=none;fillColor=none;align=center;verticalAlign=middle;whiteSpace=wrap;rounded=0;" parent="1" vertex="1">
          <mxGeometry x="310" y="1610" width="270" height="20" as="geometry" />
        </mxCell>
        <mxCell id="8SAjOOc6TQHBhtVSZ3wd-16" value="&lt;font style=&quot;font-size: 21px&quot;&gt;Да&lt;/font&gt;" style="text;html=1;strokeColor=none;fillColor=none;align=center;verticalAlign=middle;whiteSpace=wrap;rounded=0;" parent="1" vertex="1">
          <mxGeometry x="509" y="1520" width="40" height="20" as="geometry" />
        </mxCell>
        <mxCell id="8SAjOOc6TQHBhtVSZ3wd-17" value="&lt;font style=&quot;font-size: 21px&quot;&gt;&lt;b&gt;&lt;font style=&quot;font-size: 21px&quot;&gt;Регистрация &lt;/font&gt;клиента&lt;/b&gt;&lt;/font&gt;" style="rounded=1;whiteSpace=wrap;html=1;" parent="1" vertex="1">
          <mxGeometry x="600" y="1630" width="150" height="70" as="geometry" />
        </mxCell>
        <mxCell id="8SAjOOc6TQHBhtVSZ3wd-20" value="" style="line;strokeWidth=12;fillColor=none;align=left;verticalAlign=middle;spacingTop=-1;spacingLeft=3;spacingRight=3;rotatable=0;labelPosition=right;points=[];portConstraint=eastwest;" parent="1" vertex="1">
          <mxGeometry x="530" y="1770" width="290" height="8" as="geometry" />
        </mxCell>
        <mxCell id="8SAjOOc6TQHBhtVSZ3wd-21" value="&lt;b&gt;&lt;font style=&quot;font-size: 21px&quot;&gt;Бронировать&lt;/font&gt;&lt;/b&gt;" style="rounded=1;whiteSpace=wrap;html=1;strokeWidth=1;" parent="1" vertex="1">
          <mxGeometry x="480" y="1840" width="160" height="60" as="geometry" />
        </mxCell>
        <mxCell id="8SAjOOc6TQHBhtVSZ3wd-22" value="" style="endArrow=classic;html=1;exitX=0.5;exitY=1;exitDx=0;exitDy=0;" parent="1" source="8SAjOOc6TQHBhtVSZ3wd-17" edge="1">
          <mxGeometry width="50" height="50" relative="1" as="geometry">
            <mxPoint x="460" y="1780" as="sourcePoint" />
            <mxPoint x="675" y="1770" as="targetPoint" />
          </mxGeometry>
        </mxCell>
        <mxCell id="8SAjOOc6TQHBhtVSZ3wd-23" value="" style="endArrow=classic;html=1;entryX=0.5;entryY=0;entryDx=0;entryDy=0;" parent="1" target="8SAjOOc6TQHBhtVSZ3wd-21" edge="1">
          <mxGeometry width="50" height="50" relative="1" as="geometry">
            <mxPoint x="560" y="1780" as="sourcePoint" />
            <mxPoint x="510" y="1730" as="targetPoint" />
          </mxGeometry>
        </mxCell>
        <mxCell id="8SAjOOc6TQHBhtVSZ3wd-24" value="&lt;b&gt;&lt;font style=&quot;font-size: 21px&quot;&gt;Заключение &lt;/font&gt;&lt;/b&gt;&lt;font style=&quot;font-size: 21px&quot;&gt;&lt;b&gt;договора&lt;/b&gt;&lt;/font&gt;" style="rounded=1;whiteSpace=wrap;html=1;strokeWidth=1;" parent="1" vertex="1">
          <mxGeometry x="710" y="1840" width="140" height="60" as="geometry" />
        </mxCell>
        <mxCell id="8SAjOOc6TQHBhtVSZ3wd-25" value="" style="endArrow=classic;html=1;entryX=0.5;entryY=0;entryDx=0;entryDy=0;" parent="1" target="8SAjOOc6TQHBhtVSZ3wd-24" edge="1">
          <mxGeometry width="50" height="50" relative="1" as="geometry">
            <mxPoint x="780" y="1780" as="sourcePoint" />
            <mxPoint x="510" y="1720" as="targetPoint" />
          </mxGeometry>
        </mxCell>
        <mxCell id="8SAjOOc6TQHBhtVSZ3wd-26" value="" style="line;strokeWidth=12;fillColor=none;align=left;verticalAlign=middle;spacingTop=-1;spacingLeft=3;spacingRight=3;rotatable=0;labelPosition=right;points=[];portConstraint=eastwest;" parent="1" vertex="1">
          <mxGeometry x="530" y="1980" width="290" height="8" as="geometry" />
        </mxCell>
        <mxCell id="8SAjOOc6TQHBhtVSZ3wd-32" style="edgeStyle=orthogonalEdgeStyle;rounded=0;orthogonalLoop=1;jettySize=auto;html=1;exitX=1;exitY=0.5;exitDx=0;exitDy=0;entryX=0;entryY=0.5;entryDx=0;entryDy=0;" parent="1" source="8SAjOOc6TQHBhtVSZ3wd-27" target="8SAjOOc6TQHBhtVSZ3wd-31" edge="1">
          <mxGeometry relative="1" as="geometry" />
        </mxCell>
        <mxCell id="8SAjOOc6TQHBhtVSZ3wd-27" value="&lt;b&gt;&lt;font style=&quot;font-size: 21px&quot;&gt;Выдача счета на оплату&amp;nbsp;&lt;/font&gt;&lt;/b&gt;" style="rounded=1;whiteSpace=wrap;html=1;strokeWidth=1;" parent="1" vertex="1">
          <mxGeometry x="549" y="2060" width="165" height="60" as="geometry" />
        </mxCell>
        <mxCell id="8SAjOOc6TQHBhtVSZ3wd-28" value="" style="endArrow=classic;html=1;exitX=0.5;exitY=1;exitDx=0;exitDy=0;" parent="1" source="8SAjOOc6TQHBhtVSZ3wd-21" edge="1">
          <mxGeometry width="50" height="50" relative="1" as="geometry">
            <mxPoint x="460" y="1900" as="sourcePoint" />
            <mxPoint x="560" y="1980" as="targetPoint" />
          </mxGeometry>
        </mxCell>
        <mxCell id="8SAjOOc6TQHBhtVSZ3wd-29" value="" style="endArrow=classic;html=1;exitX=0.5;exitY=1;exitDx=0;exitDy=0;" parent="1" source="8SAjOOc6TQHBhtVSZ3wd-24" edge="1">
          <mxGeometry width="50" height="50" relative="1" as="geometry">
            <mxPoint x="460" y="1900" as="sourcePoint" />
            <mxPoint x="780" y="1980" as="targetPoint" />
          </mxGeometry>
        </mxCell>
        <mxCell id="8SAjOOc6TQHBhtVSZ3wd-30" value="" style="endArrow=classic;html=1;entryX=0.75;entryY=0;entryDx=0;entryDy=0;" parent="1" target="8SAjOOc6TQHBhtVSZ3wd-27" edge="1">
          <mxGeometry width="50" height="50" relative="1" as="geometry">
            <mxPoint x="673" y="1988" as="sourcePoint" />
            <mxPoint x="673" y="2060" as="targetPoint" />
          </mxGeometry>
        </mxCell>
        <mxCell id="8SAjOOc6TQHBhtVSZ3wd-35" style="edgeStyle=orthogonalEdgeStyle;rounded=0;orthogonalLoop=1;jettySize=auto;html=1;exitX=1;exitY=0.5;exitDx=0;exitDy=0;entryX=0;entryY=0.5;entryDx=0;entryDy=0;" parent="1" source="8SAjOOc6TQHBhtVSZ3wd-31" target="8SAjOOc6TQHBhtVSZ3wd-34" edge="1">
          <mxGeometry relative="1" as="geometry" />
        </mxCell>
        <mxCell id="8SAjOOc6TQHBhtVSZ3wd-31" value="&lt;font style=&quot;font-size: 21px&quot;&gt;&lt;b&gt;Отметка о&amp;nbsp;&lt;br&gt;выезде&amp;nbsp;&lt;br&gt;клиента&lt;/b&gt;&lt;/font&gt;" style="rounded=1;whiteSpace=wrap;html=1;strokeWidth=1;" parent="1" vertex="1">
          <mxGeometry x="800" y="2050" width="160" height="80" as="geometry" />
        </mxCell>
        <mxCell id="8SAjOOc6TQHBhtVSZ3wd-34" value="" style="ellipse;html=1;shape=endState;fillColor=#000000;strokeColor=#ff0000;" parent="1" vertex="1">
          <mxGeometry x="1030" y="2071" width="40" height="38" as="geometry" />
        </mxCell>
        <mxCell id="8SAjOOc6TQHBhtVSZ3wd-36" value="&lt;font style=&quot;font-size: 21px&quot;&gt;&lt;b&gt;Подбор номера&lt;br&gt;&lt;br&gt;&lt;br&gt;&lt;br&gt;&lt;br&gt;&lt;br&gt;&lt;br&gt;&lt;/b&gt;&lt;br&gt;&lt;/font&gt;" style="rounded=1;whiteSpace=wrap;html=1;strokeWidth=1;" parent="1" vertex="1">
          <mxGeometry x="130" y="2460" width="690" height="220" as="geometry" />
        </mxCell>
        <mxCell id="8SAjOOc6TQHBhtVSZ3wd-45" style="edgeStyle=orthogonalEdgeStyle;rounded=0;orthogonalLoop=1;jettySize=auto;html=1;exitX=1;exitY=0.5;exitDx=0;exitDy=0;entryX=0;entryY=0.5;entryDx=0;entryDy=0;" parent="1" source="8SAjOOc6TQHBhtVSZ3wd-37" target="8SAjOOc6TQHBhtVSZ3wd-38" edge="1">
          <mxGeometry relative="1" as="geometry" />
        </mxCell>
        <mxCell id="8SAjOOc6TQHBhtVSZ3wd-37" value="&lt;span style=&quot;font-size: 19px&quot;&gt;&lt;b&gt;Ввести&lt;br&gt;критерии&lt;br&gt;поиска&lt;/b&gt;&lt;/span&gt;" style="rounded=1;whiteSpace=wrap;html=1;strokeWidth=1;" parent="1" vertex="1">
          <mxGeometry x="170" y="2530" width="120" height="80" as="geometry" />
        </mxCell>
        <mxCell id="8SAjOOc6TQHBhtVSZ3wd-46" style="edgeStyle=orthogonalEdgeStyle;rounded=0;orthogonalLoop=1;jettySize=auto;html=1;exitX=1;exitY=0.5;exitDx=0;exitDy=0;entryX=0;entryY=0.5;entryDx=0;entryDy=0;" parent="1" source="8SAjOOc6TQHBhtVSZ3wd-38" target="8SAjOOc6TQHBhtVSZ3wd-39" edge="1">
          <mxGeometry relative="1" as="geometry" />
        </mxCell>
        <mxCell id="8SAjOOc6TQHBhtVSZ3wd-38" value="&lt;font style=&quot;font-size: 19px&quot;&gt;&lt;b&gt;Отобразить&lt;br&gt;список&lt;br&gt;найденых&lt;/b&gt;&lt;/font&gt;" style="rounded=1;whiteSpace=wrap;html=1;strokeWidth=1;" parent="1" vertex="1">
          <mxGeometry x="340" y="2530" width="120" height="80" as="geometry" />
        </mxCell>
        <mxCell id="8SAjOOc6TQHBhtVSZ3wd-47" style="edgeStyle=orthogonalEdgeStyle;rounded=0;orthogonalLoop=1;jettySize=auto;html=1;exitX=1;exitY=0.5;exitDx=0;exitDy=0;entryX=0;entryY=0.5;entryDx=0;entryDy=0;" parent="1" source="8SAjOOc6TQHBhtVSZ3wd-39" target="8SAjOOc6TQHBhtVSZ3wd-40" edge="1">
          <mxGeometry relative="1" as="geometry" />
        </mxCell>
        <mxCell id="8SAjOOc6TQHBhtVSZ3wd-39" value="&lt;font style=&quot;font-size: 19px&quot;&gt;&lt;b&gt;Поиск&lt;br&gt;номера&lt;br&gt;&amp;nbsp;в базе&lt;/b&gt;&lt;/font&gt;" style="rounded=1;whiteSpace=wrap;html=1;strokeWidth=1;" parent="1" vertex="1">
          <mxGeometry x="509" y="2530" width="120" height="80" as="geometry" />
        </mxCell>
        <mxCell id="8SAjOOc6TQHBhtVSZ3wd-40" value="&lt;font style=&quot;font-size: 19px&quot;&gt;&lt;b&gt;Отметить&lt;br&gt;номер как&lt;br&gt;занят&lt;/b&gt;&lt;/font&gt;" style="rounded=1;whiteSpace=wrap;html=1;strokeWidth=1;" parent="1" vertex="1">
          <mxGeometry x="660" y="2530" width="120" height="80" as="geometry" />
        </mxCell>
        <mxCell id="8SAjOOc6TQHBhtVSZ3wd-41" value="&lt;font style=&quot;font-size: 19px&quot;&gt;&lt;b&gt;Регистрация клиента&lt;br&gt;&lt;br&gt;&lt;br&gt;&lt;br&gt;&lt;br&gt;&lt;br&gt;&lt;br&gt;&lt;/b&gt;&lt;/font&gt;" style="rounded=1;whiteSpace=wrap;html=1;strokeWidth=1;" parent="1" vertex="1">
          <mxGeometry x="200" y="2750" width="470" height="190" as="geometry" />
        </mxCell>
        <mxCell id="8SAjOOc6TQHBhtVSZ3wd-44" style="edgeStyle=orthogonalEdgeStyle;rounded=0;orthogonalLoop=1;jettySize=auto;html=1;exitX=1;exitY=0.5;exitDx=0;exitDy=0;entryX=0;entryY=0.5;entryDx=0;entryDy=0;" parent="1" source="8SAjOOc6TQHBhtVSZ3wd-42" target="8SAjOOc6TQHBhtVSZ3wd-43" edge="1">
          <mxGeometry relative="1" as="geometry" />
        </mxCell>
        <mxCell id="8SAjOOc6TQHBhtVSZ3wd-42" value="&lt;font style=&quot;font-size: 19px&quot;&gt;&lt;b&gt;Ввод данных&lt;br&gt;о клиенте&lt;/b&gt;&lt;/font&gt;" style="rounded=1;whiteSpace=wrap;html=1;strokeWidth=1;" parent="1" vertex="1">
          <mxGeometry x="254" y="2810" width="120" height="80" as="geometry" />
        </mxCell>
        <mxCell id="8SAjOOc6TQHBhtVSZ3wd-43" value="&lt;font style=&quot;font-size: 19px&quot;&gt;&lt;b&gt;Внесение в&amp;nbsp;&lt;br&gt;клиентскую&lt;br&gt;базу&lt;/b&gt;&lt;/font&gt;" style="rounded=1;whiteSpace=wrap;html=1;strokeWidth=1;" parent="1" vertex="1">
          <mxGeometry x="500" y="2810" width="120" height="80" as="geometry" />
        </mxCell>
        <mxCell id="8SAjOOc6TQHBhtVSZ3wd-48" value="&lt;font style=&quot;font-size: 19px&quot;&gt;&lt;b&gt;Заключение договора&lt;br&gt;&lt;br&gt;&lt;br&gt;&lt;br&gt;&lt;br&gt;&lt;br&gt;&lt;br&gt;&lt;br&gt;&lt;/b&gt;&lt;/font&gt;" style="rounded=1;whiteSpace=wrap;html=1;strokeWidth=1;" parent="1" vertex="1">
          <mxGeometry x="40" y="3020" width="890" height="230" as="geometry" />
        </mxCell>
        <mxCell id="8SAjOOc6TQHBhtVSZ3wd-54" style="edgeStyle=orthogonalEdgeStyle;rounded=0;orthogonalLoop=1;jettySize=auto;html=1;exitX=1;exitY=0.5;exitDx=0;exitDy=0;entryX=0;entryY=0.5;entryDx=0;entryDy=0;" parent="1" source="8SAjOOc6TQHBhtVSZ3wd-49" target="8SAjOOc6TQHBhtVSZ3wd-50" edge="1">
          <mxGeometry relative="1" as="geometry" />
        </mxCell>
        <mxCell id="8SAjOOc6TQHBhtVSZ3wd-49" value="&lt;font style=&quot;font-size: 19px&quot;&gt;&lt;b&gt;Формирование&lt;br&gt;договора&lt;/b&gt;&lt;/font&gt;" style="rounded=1;whiteSpace=wrap;html=1;strokeWidth=1;" parent="1" vertex="1">
          <mxGeometry x="80" y="3100" width="150" height="80" as="geometry" />
        </mxCell>
        <mxCell id="8SAjOOc6TQHBhtVSZ3wd-55" style="edgeStyle=orthogonalEdgeStyle;rounded=0;orthogonalLoop=1;jettySize=auto;html=1;exitX=1;exitY=0.5;exitDx=0;exitDy=0;entryX=0;entryY=0.5;entryDx=0;entryDy=0;" parent="1" source="8SAjOOc6TQHBhtVSZ3wd-50" target="8SAjOOc6TQHBhtVSZ3wd-51" edge="1">
          <mxGeometry relative="1" as="geometry" />
        </mxCell>
        <mxCell id="8SAjOOc6TQHBhtVSZ3wd-50" value="&lt;font style=&quot;font-size: 19px&quot;&gt;&lt;b&gt;Поиск&lt;br&gt;клиента в&amp;nbsp;&lt;br&gt;базе&lt;/b&gt;&lt;/font&gt;" style="rounded=1;whiteSpace=wrap;html=1;strokeWidth=1;" parent="1" vertex="1">
          <mxGeometry x="280" y="3100" width="120" height="80" as="geometry" />
        </mxCell>
        <mxCell id="8SAjOOc6TQHBhtVSZ3wd-56" style="edgeStyle=orthogonalEdgeStyle;rounded=0;orthogonalLoop=1;jettySize=auto;html=1;exitX=1;exitY=0.5;exitDx=0;exitDy=0;entryX=0;entryY=0.5;entryDx=0;entryDy=0;" parent="1" source="8SAjOOc6TQHBhtVSZ3wd-51" target="8SAjOOc6TQHBhtVSZ3wd-52" edge="1">
          <mxGeometry relative="1" as="geometry" />
        </mxCell>
        <mxCell id="8SAjOOc6TQHBhtVSZ3wd-51" value="&lt;font style=&quot;font-size: 19px&quot;&gt;&lt;b&gt;Выбор&lt;br&gt;&amp;nbsp;номера из&lt;br&gt;базы&lt;/b&gt;&lt;/font&gt;" style="rounded=1;whiteSpace=wrap;html=1;strokeWidth=1;" parent="1" vertex="1">
          <mxGeometry x="450" y="3100" width="120" height="80" as="geometry" />
        </mxCell>
        <mxCell id="8SAjOOc6TQHBhtVSZ3wd-57" style="edgeStyle=orthogonalEdgeStyle;rounded=0;orthogonalLoop=1;jettySize=auto;html=1;exitX=1;exitY=0.5;exitDx=0;exitDy=0;entryX=0;entryY=0.5;entryDx=0;entryDy=0;" parent="1" source="8SAjOOc6TQHBhtVSZ3wd-52" target="8SAjOOc6TQHBhtVSZ3wd-53" edge="1">
          <mxGeometry relative="1" as="geometry" />
        </mxCell>
        <mxCell id="8SAjOOc6TQHBhtVSZ3wd-52" value="&lt;font style=&quot;font-size: 19px&quot;&gt;&lt;b&gt;Сохранение&lt;br&gt;договора&lt;/b&gt;&lt;/font&gt;" style="rounded=1;whiteSpace=wrap;html=1;strokeWidth=1;" parent="1" vertex="1">
          <mxGeometry x="615" y="3100" width="120" height="80" as="geometry" />
        </mxCell>
        <mxCell id="8SAjOOc6TQHBhtVSZ3wd-53" value="&lt;font style=&quot;font-size: 19px&quot;&gt;&lt;b&gt;Печать&lt;br&gt;договора&lt;/b&gt;&lt;/font&gt;" style="rounded=1;whiteSpace=wrap;html=1;strokeWidth=1;" parent="1" vertex="1">
          <mxGeometry x="780" y="3100" width="120" height="80" as="geometry" />
        </mxCell>
      </root>
    </mxGraphModel>
  </diagram>
</mxfile>
